<svg id="Capa_1" data-name="Capa 1" xmlns="http://www.w3.org/2000/svg" xmlns:xlink="http://www.w3.org/1999/xlink" viewBox="0 0 96.57 95.94"><defs><clipPath id="clip-path" transform="translate(-1.86 -2.06)"><path d="M99.3,70.59,86.39,64.08,16.6,67.8,5.07,74.43l-.18-43.2,8,3.76L67.46,14.13,71.38,4.07s20.27,21.9,24,29.66S99.3,70.59,99.3,70.59Z" fill="none"/></clipPath></defs><circle cx="50.1" cy="49" r="34.19" transform="translate(-13.01 80.98) rotate(-73.43)" fill="#dd0740"/><circle cx="50.1" cy="49" r="27.86" transform="translate(-7.92 88.86) rotate(-81.11)" fill="#dd0740"/><path d="M50.11,71a22,22,0,1,1,10.11-2.47A22,22,0,0,1,50.11,71Zm0-39.07a16.8,16.8,0,0,0-7.81,1.92A17,17,0,0,0,50.11,66a16.76,16.76,0,0,0,7.81-1.91A17,17,0,0,0,50.08,32Z" transform="translate(-1.86 -2.06)"/><path d="M77.74,35.2A30.73,30.73,0,1,0,64.13,76.47,30.73,30.73,0,0,0,77.74,35.2ZM52.16,48.09a2.08,2.08,0,1,1-2.8-.92A2.08,2.08,0,0,1,52.16,48.09Zm5.3-23.28a8,8,0,1,1-6.56,9.24A8,8,0,0,1,57.46,24.81Zm-19,19.1A8,8,0,1,1,45,34.67,8,8,0,0,1,38.46,43.91ZM35,65.6a8,8,0,1,1,6.56-9.24A8,8,0,0,1,35,65.6ZM67.27,44.52a8,8,0,1,1-6.55,9.24A8,8,0,0,1,67.27,44.52ZM45.46,69.12a8,8,0,1,1,9.24,6.55A8,8,0,0,1,45.46,69.12Z" transform="translate(-1.86 -2.06)" fill="#fff"/><path d="M8.23,27.82c.11-.27.23-.52.33-.76s.24-.48.4-.76a6,6,0,0,1,.63-.89,3.09,3.09,0,0,1,.79-.66,1.91,1.91,0,0,1,.94-.25,2,2,0,0,1,1.09.32,2.36,2.36,0,0,1,.56.43,2.07,2.07,0,0,1,.34.49,2.67,2.67,0,0,1,.18.49,4,4,0,0,1,.06.43v.2h3.5l-.17.38a3.84,3.84,0,0,1-.21.4,4.49,4.49,0,0,1-.42.62l-3.84,0,0-.27c0-.11,0-.23,0-.39a1.91,1.91,0,0,0,0-.47,1.72,1.72,0,0,0-.19-.47,1.22,1.22,0,0,0-.42-.39,1.12,1.12,0,0,0-1-.15,1.42,1.42,0,0,0-.72.66,2.84,2.84,0,0,0-.17.36l5.26,3-.15.33c0,.11-.11.21-.16.31l-.19.31-.23.31Z" transform="translate(-1.86 -2.06)" fill="#fff"/><path d="M11.74,22.05l2.5-3.23a3.24,3.24,0,0,1,.52.33,3.77,3.77,0,0,1,.46.43l-1.6,2.07,1.23,1L16.12,21a3.41,3.41,0,0,1,.53.33,3.19,3.19,0,0,1,.46.44l-1.27,1.64,1.5,1.16L19,22.4a3.24,3.24,0,0,1,.52.33,3.16,3.16,0,0,1,.46.43l-2.54,3.29Z" transform="translate(-1.86 -2.06)" fill="#fff"/><path d="M17.39,17.26l-1.27,1.26a2.6,2.6,0,0,1-.49-.4,2.86,2.86,0,0,1-.39-.47l3.58-3.56a2.93,2.93,0,0,1,.48.39,3,3,0,0,1,.4.48l-1.27,1.27,4.19,4.22-.23.28-.24.25a3.13,3.13,0,0,1-.26.25l-.31.25Z" transform="translate(-1.86 -2.06)" fill="#fff"/><path d="M20.23,12.89l.61-.56c.19-.17.41-.35.67-.54a5.86,5.86,0,0,1,.92-.57,2.86,2.86,0,0,1,1-.29,2,2,0,0,1,1,.13,2.09,2.09,0,0,1,.87.73,2.31,2.31,0,0,1,.35.62,2.67,2.67,0,0,1,.11.58,2.18,2.18,0,0,1,0,.52,3.16,3.16,0,0,1-.11.42l-.07.19,3.22,1.38-.31.29c-.11.1-.23.19-.35.28a4.85,4.85,0,0,1-.64.4l-3.51-1.55.13-.24c0-.09.1-.2.16-.34a2.15,2.15,0,0,0,.14-.45,1.46,1.46,0,0,0,0-.51,1.23,1.23,0,0,0-.23-.53,1.12,1.12,0,0,0-.84-.52,1.46,1.46,0,0,0-.93.32l-.3.26,3.64,4.86-.27.25-.27.22-.3.21a2.63,2.63,0,0,1-.33.2Z" transform="translate(-1.86 -2.06)" fill="#fff"/><path d="M31.74,14a3.27,3.27,0,0,1-1.37.4,2.66,2.66,0,0,1-1.22-.23,3.42,3.42,0,0,1-1-.78,5.54,5.54,0,0,1-.85-1.21,5.63,5.63,0,0,1-.53-1.4,3.49,3.49,0,0,1-.05-1.32,2.63,2.63,0,0,1,.49-1.14,3.18,3.18,0,0,1,1.11-.9,3.27,3.27,0,0,1,1.37-.4,2.54,2.54,0,0,1,1.22.24,3.19,3.19,0,0,1,1.05.78,5.61,5.61,0,0,1,.86,1.23,5.38,5.38,0,0,1,.52,1.39,3.39,3.39,0,0,1,.05,1.3,2.64,2.64,0,0,1-.5,1.14A3.42,3.42,0,0,1,31.74,14ZM31.17,13c.92-.49,1-1.46.22-2.92a3.67,3.67,0,0,0-1.2-1.47,1.28,1.28,0,0,0-1.32,0c-.92.49-1,1.47-.23,2.93S30.25,13.43,31.17,13Z" transform="translate(-1.86 -2.06)" fill="#fff"/><path d="M35.71,4.33a5.65,5.65,0,0,1,.73-.24A3.9,3.9,0,0,1,37.2,4l2.6,3.59.65-4.41a3.53,3.53,0,0,1,.65-.22,4.83,4.83,0,0,1,.73-.12L43.9,9.69a3.9,3.9,0,0,1-.68.23,3.79,3.79,0,0,1-.66.11L41.2,5.34,40.6,9l-.27.11L40,9.16l-.25.06-.28,0-2.15-3,1.06,4.83a3.38,3.38,0,0,1-.58.21,3.5,3.5,0,0,1-.66.1Z" transform="translate(-1.86 -2.06)" fill="#fff"/><path d="M47.83,9.53a3.31,3.31,0,0,1-1.41-.19,2.86,2.86,0,0,1-1-.72,3.35,3.35,0,0,1-.63-1.13A5.91,5.91,0,0,1,44.49,6a5.63,5.63,0,0,1,.1-1.5,3.28,3.28,0,0,1,.49-1.21A2.57,2.57,0,0,1,46,2.48a3.59,3.59,0,0,1,2.8-.17,2.53,2.53,0,0,1,1,.72,3.21,3.21,0,0,1,.64,1.15,5.49,5.49,0,0,1,.27,1.47,5.49,5.49,0,0,1-.09,1.48,3.24,3.24,0,0,1-.5,1.2,2.46,2.46,0,0,1-.92.83A3.19,3.19,0,0,1,47.83,9.53Zm-.07-1.22c1-.06,1.5-.92,1.4-2.57a3.72,3.72,0,0,0-.49-1.83,1.27,1.27,0,0,0-1.2-.55c-1,.06-1.52.92-1.42,2.57S46.72,8.37,47.76,8.31Z" transform="translate(-1.86 -2.06)" fill="#fff"/><path d="M51.67,2.06h.78a6,6,0,0,1,.79.14l1,5.79,2.12-5.49h.39l.37,0,.36,0,.38.08-3,6.94H54.5l-.41,0-.39-.05-.42-.08Z" transform="translate(-1.86 -2.06)" fill="#fff"/><path d="M59.26,3a4.29,4.29,0,0,1,.73.09,5.15,5.15,0,0,1,.71.21l-1.47,7a4,4,0,0,1-.72-.09,4.56,4.56,0,0,1-.72-.21Z" transform="translate(-1.86 -2.06)" fill="#fff"/><path d="M62.6,3.72,66.5,5a4.29,4.29,0,0,1-.13.6,3.38,3.38,0,0,1-.25.58l-2.49-.78-.47,1.48,2,.63a3,3,0,0,1-.13.61,3.23,3.23,0,0,1-.24.58l-2-.62-.57,1.81,2.57.81a3.22,3.22,0,0,1-.13.6,3.72,3.72,0,0,1-.24.58l-4-1.25Z" transform="translate(-1.86 -2.06)" fill="#fff"/><path d="M18.94,76.19l-.66-.84-1.54,1.21L17.85,78l-1.06.83L15.68,77.4l-1.57,1.24,1,1.22-1.52,1.2L10.1,76.7l1.52-1.2.44.55,4.16-3.3-.44-.55L17.3,71l4.46,5.62-2.4,1.9-1.3-1.64Z" transform="translate(-1.86 -2.06)" fill="#fff"/><path d="M21.77,76.49l3.45,3.22L23.9,81.13l-.52-.49-3.62,3.88.51.48L19,86.42,15.5,83.19l1.32-1.41.52.48L21,78.38l-.52-.48Z" transform="translate(-1.86 -2.06)" fill="#fff"/><path d="M25.16,79.78l4.21,2.88-1.09,1.59-.9-.61-3,4.39.88.6.61-.9,1.94,1.33-1.7,2.49L20,87.37l1.1-1.6.58.4,3-4.39-.58-.4Z" transform="translate(-1.86 -2.06)" fill="#fff"/><path d="M30.75,84.13,36.07,86,36,90.28l2.57-3.38,5.13,1.82-.64,1.82-.67-.24-1.77,5,.66.24-.64,1.82L36.18,95.8,36.82,94l.67.24,1.56-4.4-4.42,5.44-1.2-.43-.31-7.13-1.56,4.42.67.24-.65,1.82-3.89-1.38L28.33,91l.67.23,1.77-5L30.1,86Z" transform="translate(-1.86 -2.06)" fill="#fff"/><path d="M50.17,95.73a1,1,0,0,0,.55-.13.41.41,0,0,0,.16-.36.37.37,0,0,0-.14-.28,1.83,1.83,0,0,0-.56-.29q-.87-.32-1.53-.6a4.56,4.56,0,0,1-1.1-.65,2.36,2.36,0,0,1-.66-.85,3.09,3.09,0,0,1-.23-1.18,3.2,3.2,0,0,1,.19-1.19,2.16,2.16,0,0,1,.66-.91,3.2,3.2,0,0,1,1.23-.58,7.64,7.64,0,0,1,1.9-.23,8.7,8.7,0,0,1,1.94.18,5.74,5.74,0,0,1,1.52.52l0,2.11-2.48,0a.53.53,0,0,0-.19-.46.89.89,0,0,0-.47-.12,1.25,1.25,0,0,0-.56.11.38.38,0,0,0-.16.35.3.3,0,0,0,.19.3,3.18,3.18,0,0,0,.55.2c.46.14.89.29,1.3.45a4.31,4.31,0,0,1,1.08.6,3,3,0,0,1,.07,4.44,4.76,4.76,0,0,1-2.89.8,10.93,10.93,0,0,1-2.09-.16,7.51,7.51,0,0,1-1.62-.42l0-2.34,2.59,0a.87.87,0,0,0,.15.52A.77.77,0,0,0,50.17,95.73Z" transform="translate(-1.86 -2.06)" fill="#fff"/><path d="M54,88.72l8.69-1.79.58,2.81-2,.41-.19-.92-.74.15,1.08,5.21.8-.17.4,1.9-4.86,1-.39-1.9.81-.17-1.07-5.2-.74.16.18.91-2,.41Z" transform="translate(-1.86 -2.06)" fill="#fff"/><path d="M72.34,89a4.39,4.39,0,0,1,.42,1.58,2.76,2.76,0,0,1-.26,1.29,3.17,3.17,0,0,1-.85,1,6.7,6.7,0,0,1-1.35.81,6.44,6.44,0,0,1-1.54.48,2.9,2.9,0,0,1-1.35,0,2.72,2.72,0,0,1-1.15-.65,4.19,4.19,0,0,1-.91-1.36l-1.62-3.61-.64.29-.79-1.77,4.09-1.83L67.18,87l-.43.19,1.86,4.16a.84.84,0,0,0,.39.46.85.85,0,0,0,.94-.42.79.79,0,0,0-.08-.6L68,86.62l-.43.19-.79-1.76,3.8-1.7.79,1.76-.65.29Z" transform="translate(-1.86 -2.06)" fill="#fff"/><path d="M70.26,83.52l3.92-3a6.15,6.15,0,0,1,1.49-.83,3.34,3.34,0,0,1,1.56-.2,3.58,3.58,0,0,1,1.58.59,6.23,6.23,0,0,1,1.57,1.53,6.51,6.51,0,0,1,1,1.94,3.72,3.72,0,0,1,.12,1.67,3.27,3.27,0,0,1-.63,1.44,5.74,5.74,0,0,1-1.21,1.2l-3.93,3-1.16-1.54.57-.43L72,84.64l-.56.43Zm8.11,3a.78.78,0,0,0,.35-.52.9.9,0,0,0-.24-.66l-2.14-2.85a.87.87,0,0,0-.57-.4.81.81,0,0,0-.6.19l-.54.41,3.19,4.24Z" transform="translate(-1.86 -2.06)" fill="#fff"/><path d="M77.34,78l3.24-3.43L82,75.85l-.48.52L85.37,80l.49-.51,1.41,1.32L84,84.26l-1.41-1.33.49-.51-3.87-3.64-.49.51Z" transform="translate(-1.86 -2.06)" fill="#fff"/><path d="M89.38,69.88A6.84,6.84,0,0,1,91,71.37a3.79,3.79,0,0,1,.72,1.56,3.53,3.53,0,0,1-.1,1.64,6.31,6.31,0,0,1-.82,1.7,6.42,6.42,0,0,1-1.25,1.41,3.46,3.46,0,0,1-1.48.72,3.61,3.61,0,0,1-1.72-.06,6.74,6.74,0,0,1-2-1,6.39,6.39,0,0,1-1.65-1.48A3.73,3.73,0,0,1,82,74.33a3.54,3.54,0,0,1,.1-1.64,6.86,6.86,0,0,1,2.07-3.11,3.58,3.58,0,0,1,1.48-.72,3.66,3.66,0,0,1,1.73.07A6.54,6.54,0,0,1,89.38,69.88Zm-.29,5.22a.78.78,0,0,0,.16-.61.94.94,0,0,0-.44-.54l-3-2a1,1,0,0,0-.67-.2.82.82,0,0,0-.5.39.79.79,0,0,0-.16.61.94.94,0,0,0,.44.54l3,2a.88.88,0,0,0,.66.2A.78.78,0,0,0,89.09,75.1Z" transform="translate(-1.86 -2.06)" fill="#fff"/><g clip-path="url(#clip-path)"><path d="M50.3,94.6A45.27,45.27,0,1,1,95.57,49.33,45.32,45.32,0,0,1,50.3,94.6Zm0-86.53A41.27,41.27,0,1,0,91.57,49.33,41.32,41.32,0,0,0,50.3,8.07Z" transform="translate(-1.86 -2.06)" fill="#fff"/></g><path d="M98.42,42.38a5.23,5.23,0,1,1-5.59-4.85A5.23,5.23,0,0,1,98.42,42.38Z" transform="translate(-1.86 -2.06)" fill="#dd0740"/><polygon points="91.13 37.78 92.1 39.44 94.02 39.58 92.74 41.01 93.2 42.88 91.44 42.11 89.81 43.12 90 41.21 88.53 39.97 90.41 39.56 91.13 37.78" fill="#fff"/><path d="M12.32,52.06a5.24,5.24,0,1,1-5.6-4.85A5.24,5.24,0,0,1,12.32,52.06Z" transform="translate(-1.86 -2.06)" fill="#dd0740"/><polygon points="5.02 47.43 6 49.09 7.91 49.23 6.63 50.67 7.09 52.53 5.33 51.76 3.7 52.77 3.89 50.86 2.42 49.62 4.3 49.21 5.02 47.43" fill="#fff"/><path d="M29.19,22a8.33,8.33,0,0,1,.78-.55c.5-.34,1.23-.79,2.19-1.33a38.15,38.15,0,0,1,3.54-1.73,43.65,43.65,0,0,1,4.8-1.74,45.43,45.43,0,0,1,5.87-1.33c1.05-.21,2.15-.27,3.26-.42s2.27-.16,3.43-.18h2.68l.87,0c1.14,0,2.37.14,3.59.25a72.55,72.55,0,0,1,7.27,1.11c2.41.49,4.79,1.12,7.09,1.76s4.49,1.32,6.59,1.72a24.8,24.8,0,0,0,6,.63,4.47,4.47,0,0,0,3.66-1.72,6,6,0,0,0,.51-.85c.08-.15.15-.31.22-.47l.09-.24,0-.06h0s-.06.17,0,.08l0,0,0-.15a5.19,5.19,0,0,0,.28-1c0-.13.06-.24.08-.38l0-.42a6.54,6.54,0,0,0-.45-2.89,7.33,7.33,0,0,0-1.27-2.18l2.94-2.71a6.66,6.66,0,0,1,.7.91,11.94,11.94,0,0,1,1.33,2.6,10.41,10.41,0,0,1,0,7.29l0,.14-.06.18,0,.08-.15.34c-.1.23-.21.46-.33.7a9.72,9.72,0,0,1-.88,1.39A7.63,7.63,0,0,1,91,23.13a9.6,9.6,0,0,1-3.61.82,28.42,28.42,0,0,1-6.92-.8c-2.33-.48-4.59-1.23-6.84-1.88s-4.52-1.3-6.82-1.8a66.37,66.37,0,0,0-6.91-1.15c-1.14-.12-2.25-.24-3.43-.3L55.56,18l-.81,0-1.65,0c-1.09,0-2.16.07-3.2.12s-2.07.17-3.06.35a40.85,40.85,0,0,0-5.5,1.17,38,38,0,0,0-4.48,1.55,35.75,35.75,0,0,0-3.31,1.55c-.88.48-1.56.88-2,1.17s-.62.43-.64.44Z" transform="translate(-1.86 -2.06)" fill="#dd0740"/></svg>